<?xml version="1.0" encoding="utf-8"?>
<!-- Generator: Adobe Illustrator 23.0.0, SVG Export Plug-In . SVG Version: 6.00 Build 0)  -->
<svg version="1.1" id="Layer_1" xmlns="http://www.w3.org/2000/svg" xmlns:xlink="http://www.w3.org/1999/xlink" x="0px" y="0px"
	 viewBox="0 0 647.6 632.2" style="enable-background:new 0 0 647.6 632.2;" xml:space="preserve">
<style type="text/css">
	.st0{fill:#F2F2F2;}
	.st1{fill:#3F3D56;}
	.st2{fill:#FFFFFF;}
	.st3{fill:#E6E6E6;}
	.st4{opacity:0.3;}
</style>
<path class="st0" d="M411.1,142.2H236.6c-8.3,0-15,6.7-15,15V545l-2,0.6l-42.8,13.1c-4.2,1.3-8.7-1.1-10-5.3l-127.3-416
	c-1.3-4.2,1.1-8.7,5.3-10l66-20.2L302,48.8l66-20.2c4.2-1.3,8.7,1.1,10,5.3c0,0,0,0,0,0l32.5,106.3L411.1,142.2z"/>
<path class="st1" d="M449.2,140.2L410,12c-2.7-9-12.2-14-21.2-11.3c0,0,0,0,0,0L296,29.1L104.8,87.7L12,116.1
	c-9,2.8-14,12.3-11.3,21.2l134.1,437.9c2.2,7.1,8.8,12,16.3,12c1.7,0,3.4-0.3,5-0.8l63.6-19.5l2-0.6v-2.1l-2,0.6l-64.2,19.7
	c-7.9,2.4-16.3-2-18.7-10L2.7,136.7c-2.4-7.9,2-16.3,9.9-18.7c0,0,0,0,0,0l92.8-28.4l191.2-58.5l92.8-28.4c1.4-0.4,2.9-0.7,4.4-0.7
	c6.6,0,12.4,4.3,14.3,10.6l39,127.6l0.6,2h2.1L449.2,140.2z"/>
<path d="M122.7,127.8c-4,0-7.4-2.6-8.6-6.4l-12.9-42.1c-1.5-4.8,1.2-9.8,6-11.2c0,0,0,0,0,0l175.9-53.9c4.8-1.5,9.8,1.2,11.2,6
	l12.9,42.1c1.4,4.8-1.2,9.8-6,11.2l-175.9,53.9C124.5,127.7,123.6,127.8,122.7,127.8z"/>
<circle cx="190.2" cy="25" r="20"/>
<circle class="st2" cx="190.2" cy="25" r="12.7"/>
<path class="st3" d="M602.6,582.2h-338c-4.7,0-8.5-3.8-8.5-8.5v-405c0-4.7,3.8-8.5,8.5-8.5h338c4.7,0,8.5,3.8,8.5,8.5v405
	C611.1,578.4,607.3,582.2,602.6,582.2z"/>
<path class="st1" d="M447.1,140.2H236.6c-9.4,0-17,7.6-17,17V565l2-0.6V157.2c0-8.3,6.7-15,15-15h211.1L447.1,140.2z M630.6,140.2
	h-394c-9.4,0-17,7.6-17,17v458c0,9.4,7.6,17,17,17h394c9.4,0,17-7.6,17-17v-458C647.6,147.8,640,140.2,630.6,140.2z M645.6,615.2
	c0,8.3-6.7,15-15,15h-394c-8.3,0-15-6.7-15-15v-458c0-8.3,6.7-15,15-15h394c8.3,0,15,6.7,15,15V615.2z"/>
<path d="M525.6,184.2h-184c-5,0-9-4-9-9v-44c0-5,4-9,9-9h184c5,0,9,4,9,9v44C534.6,180.1,530.6,184.2,525.6,184.2z"/>
<circle cx="433.6" cy="105.2" r="20"/>
<circle class="st2" cx="433.6" cy="105.2" r="12.2"/>
<g class="st4">
	<path d="M368,354.3v33.6H365l-21.6-27.3v27.3h-3.6v-33.6h2.9l21.6,27.3v-27.3H368z"/>
	<path d="M381.9,386.4c-2-1.1-3.5-2.6-4.6-4.6c-1.1-2-1.7-4.2-1.7-6.6s0.6-4.7,1.7-6.6c1.1-2,2.7-3.5,4.6-4.6c2-1.1,4.1-1.6,6.6-1.6
		c2.4,0,4.6,0.5,6.6,1.6c2,1.1,3.5,2.6,4.6,4.6c1.1,2,1.7,4.2,1.7,6.6s-0.6,4.7-1.7,6.6c-1.1,2-2.6,3.5-4.6,4.6
		c-2,1.1-4.1,1.7-6.6,1.7C386.1,388.1,383.9,387.5,381.9,386.4z M393.3,383.8c1.4-0.8,2.5-2,3.3-3.5c0.8-1.5,1.2-3.2,1.2-5.1
		s-0.4-3.6-1.2-5.1c-0.8-1.5-1.9-2.7-3.3-3.5c-1.4-0.8-3-1.2-4.8-1.2c-1.8,0-3.4,0.4-4.8,1.2s-2.5,2-3.4,3.5
		c-0.8,1.5-1.2,3.2-1.2,5.1s0.4,3.6,1.2,5.1c0.8,1.5,1.9,2.7,3.4,3.5s3,1.2,4.8,1.2C390.3,385.1,391.9,384.7,393.3,383.8z"/>
	<path d="M421.6,354.3h13.7c3.6,0,6.7,0.7,9.4,2.1c2.7,1.4,4.8,3.4,6.3,6c1.5,2.5,2.3,5.4,2.3,8.7c0,3.3-0.8,6.2-2.3,8.7
		c-1.5,2.5-3.6,4.5-6.3,6c-2.7,1.4-5.9,2.1-9.4,2.1h-13.7V354.3z M435.1,384.8c2.9,0,5.5-0.6,7.7-1.8c2.2-1.2,3.9-2.8,5.1-4.8
		c1.2-2.1,1.8-4.4,1.8-7.1s-0.6-5.1-1.8-7.1c-1.2-2.1-2.9-3.7-5.1-4.8c-2.2-1.2-4.8-1.8-7.7-1.8h-9.9v27.5H435.1z"/>
	<path d="M476.9,364.9c1.8,1.6,2.6,4.1,2.6,7.3v15.6h-3.3v-3.9c-0.8,1.3-1.9,2.3-3.4,3.1c-1.5,0.7-3.3,1.1-5.3,1.1
		c-2.8,0-5.1-0.7-6.7-2c-1.7-1.3-2.5-3.1-2.5-5.3c0-2.1,0.8-3.9,2.3-5.2c1.6-1.3,4-2,7.4-2h8v-1.5c0-2.2-0.6-3.8-1.8-5
		c-1.2-1.1-3-1.7-5.3-1.7c-1.6,0-3.1,0.3-4.6,0.8c-1.5,0.5-2.7,1.3-3.8,2.2l-1.5-2.5c1.3-1.1,2.8-1.9,4.6-2.5
		c1.8-0.6,3.7-0.9,5.7-0.9C472.6,362.4,475.2,363.2,476.9,364.9z M473.1,384.1c1.4-0.9,2.4-2.2,3.1-3.8v-4.1h-7.9
		c-4.3,0-6.5,1.5-6.5,4.5c0,1.5,0.6,2.6,1.7,3.5c1.1,0.8,2.7,1.3,4.7,1.3C470.1,385.4,471.7,385,473.1,384.1z"/>
	<path d="M502.1,386.3c-0.6,0.6-1.4,1-2.4,1.3c-0.9,0.3-1.9,0.5-3,0.5c-2.4,0-4.2-0.6-5.5-1.9c-1.3-1.3-1.9-3.1-1.9-5.4v-15.3h-4.5
		v-2.9h4.5v-5.5h3.4v5.5h7.7v2.9h-7.7v15.1c0,1.5,0.4,2.6,1.1,3.4c0.8,0.8,1.8,1.2,3.2,1.2c0.7,0,1.4-0.1,2-0.3
		c0.7-0.2,1.2-0.5,1.7-1L502.1,386.3z"/>
	<path d="M524.7,364.9c1.8,1.6,2.6,4.1,2.6,7.3v15.6h-3.3v-3.9c-0.8,1.3-1.9,2.3-3.4,3.1c-1.5,0.7-3.3,1.1-5.3,1.1
		c-2.8,0-5.1-0.7-6.7-2c-1.7-1.3-2.5-3.1-2.5-5.3c0-2.1,0.8-3.9,2.3-5.2c1.6-1.3,4-2,7.4-2h8v-1.5c0-2.2-0.6-3.8-1.8-5
		c-1.2-1.1-3-1.7-5.3-1.7c-1.6,0-3.1,0.3-4.6,0.8c-1.5,0.5-2.7,1.3-3.8,2.2l-1.5-2.5c1.3-1.1,2.8-1.9,4.6-2.5
		c1.8-0.6,3.7-0.9,5.7-0.9C520.5,362.4,523,363.2,524.7,364.9z M520.9,384.1c1.4-0.9,2.4-2.2,3.1-3.8v-4.1h-7.9
		c-4.3,0-6.5,1.5-6.5,4.5c0,1.5,0.6,2.6,1.7,3.5c1.1,0.8,2.7,1.3,4.7,1.3C517.9,385.4,519.5,385,520.9,384.1z"/>
</g>
</svg>
