<?xml version="1.0" encoding="utf-8"?>
<!-- Generator: Adobe Illustrator 23.0.0, SVG Export Plug-In . SVG Version: 6.00 Build 0)  -->
<svg version="1.1" id="Layer_1" xmlns="http://www.w3.org/2000/svg" xmlns:xlink="http://www.w3.org/1999/xlink" x="0px" y="0px"
	 viewBox="0 0 927.8 430.5" style="enable-background:new 0 0 927.8 430.5;" xml:space="preserve">
<style type="text/css">
	.st0{opacity:0.64;}
	.st1{fill:#F2F2F2;}
	.st2{fill:#FFFFFF;}
	.st3{fill:#E6E6E6;}
	.st4{fill:#3F3D56;}
</style>
<g>
	<g class="st0">
		<path class="st1" d="M836.9,429.6h-253V281.1l-1.2-0.7l41.1-40c20.8-20.3,48.6-31.7,77.6-32l75.5-0.7l0.1,0.1l60.1,71.5l-0.2,2
			L836.9,429.6z"/>
		<rect x="631.6" y="235.7" class="st2" width="151.3" height="1.4"/>
		<rect x="616.6" y="250.8" class="st2" width="151.3" height="1.4"/>
		<rect x="795.8" y="210.1" class="st1" width="24.7" height="85.3"/>
		<path class="st3" d="M836.9,429.6H701.5v-98.4c0-22.7,8.1-44.7,22.9-62.1l52.4-61.4l60.1,71.5L836.9,429.6z"/>
		<rect id="a6590c42-447c-4063-b06f-22960ea9e1c6_1_" x="765.1" y="355.6" class="st2" width="27.5" height="24.3"/>
		<rect id="a578d772-16a5-40c1-af18-cd3a687ecce1_1_" x="765.1" y="313.5" class="st2" width="27.5" height="23.9"/>
		<rect id="ed02d0f4-f24a-4a19-b524-9521b83f0535_1_" x="633.7" y="349.1" class="st2" width="27.5" height="24.3"/>
		<rect id="b847f630-38c4-41e6-9edb-729b8a62aeb5_1_" x="633.7" y="307.1" class="st2" width="27.5" height="23.9"/>
		<path id="f115d1b6-9c1d-4192-bab1-4c1681c44a09-229_1_" class="st1" d="M789.8,255.2l-5.2-10.9l-10.4,0.2l-6.3,10.8l0.1,0.1h0V278
			h21.8v-22.6L789.8,255.2z"/>
		<rect x="795.8" y="214.3" class="st2" width="24.7" height="1.4"/>
		<rect x="795.8" y="229.3" class="st2" width="24.7" height="1.4"/>
	</g>
	<g>
		<path class="st1" d="M699.4,429.6H409.8V259.6l-1.3-0.9l47-45.8c23.8-23.2,55.6-36.3,88.8-36.6l86.4-0.8l0.1,0.1l68.8,81.8
			l-0.2,2.3L699.4,429.6z"/>
		<rect x="464.3" y="207.7" class="st2" width="173.2" height="1.6"/>
		<rect x="447.1" y="224.9" class="st2" width="173.2" height="1.6"/>
		<rect x="652.3" y="178.4" class="st1" width="28.2" height="97.7"/>
		<path class="st3" d="M699.4,429.6h-155V316.9c0-26,9.3-51.2,26.2-71l60-70.3l68.8,81.9V429.6z"/>
		<rect id="a6590c42-447c-4063-b06f-22960ea9e1c6" x="617.2" y="344.9" class="st2" width="31.5" height="27.8"/>
		<rect id="a578d772-16a5-40c1-af18-cd3a687ecce1" x="617.2" y="296.7" class="st2" width="31.5" height="27.4"/>
		<rect id="ed02d0f4-f24a-4a19-b524-9521b83f0535" x="466.8" y="337.5" class="st2" width="31.5" height="27.8"/>
		<rect id="b847f630-38c4-41e6-9edb-729b8a62aeb5" x="466.8" y="289.3" class="st2" width="31.5" height="27.4"/>
		<path id="f115d1b6-9c1d-4192-bab1-4c1681c44a09-229" class="st1" d="M645.4,230l-5.9-12.5l-11.9,0.2l-7.2,12.4l0.1,0.2h-0.1v25.8
			h25v-25.8L645.4,230z"/>
		<rect x="652.3" y="183.1" class="st2" width="28.2" height="1.6"/>
		<rect x="652.3" y="200.3" class="st2" width="28.2" height="1.6"/>
	</g>
	<rect x="420.5" y="124.8" class="st1" width="34.3" height="118.6"/>
	<path class="st1" d="M477.6,429.6H126.3V223.4l-1.6-1l0.4-0.4l64.2-62.5c24-23.4,56.1-36.7,89.6-36.9l115.4-1.1l0.1,0.1l83.4,99.2
		l-0.2,2.7L477.6,429.6z"/>
	<path class="st3" d="M477.6,429.6H289.6V278.1c0-22,7.9-43.3,22.1-60.1l82.4-96.6l83.4,99.3V429.6z"/>
	<rect id="ea84a9e5-6c52-4e5e-8073-8fad2571a91f" x="385.1" y="326.9" class="st2" width="30.4" height="26.9"/>
	<rect id="f19b6ec7-0e8c-4fff-907a-924d40e6f96c" x="385.1" y="280.2" class="st2" width="30.4" height="26.9"/>
	<rect id="b161f5b0-b707-4bd0-97aa-6c4dd340fe66" x="195.3" y="259.4" class="st2" width="38.2" height="33.2"/>
	<path id="e743b151-a501-4802-bd45-1d20431e6e42-228" class="st1" d="M415.8,187.3l-7.3-17l-14.7,0.3l-8.9,17l0.2,0.2h-0.1v35.3
		h30.9v-35.3L415.8,187.3z"/>
	<rect x="185.6" y="162.8" class="st2" width="173.2" height="1.6"/>
	<rect x="168.4" y="180" class="st2" width="173.2" height="1.6"/>
	<rect x="420.5" y="130.7" class="st2" width="34.3" height="1.6"/>
	<rect x="420.5" y="147.9" class="st2" width="34.3" height="1.6"/>
</g>
<rect id="bed8a224-40da-4f11-a19c-2b4f6eae74c1" y="428" class="st4" width="927.8" height="2.3"/>
<g>
	<g>
		<ellipse id="fb6c0aeb-9c49-4f71-adc3-f096e0d8dfbf_1_" cx="107.8" cy="356.1" rx="22.3" ry="45.5"/>
		<path id="b1a6d698-dda0-490a-ac80-38ce87516ad9-189_1_" class="st4" d="M111.2,430.4c-8.9-53.4-0.1-106.6,0-107.1l-0.9-0.2
			c-0.1,0.5-8.9,53.9,0,107.4L111.2,430.4z"/>
		
			<rect id="ec111ffd-238a-4858-990a-57023cafb3d8_1_" x="106.4" y="352" transform="matrix(0.8817 -0.4718 0.4718 0.8817 -152.3761 97.2828)" class="st4" width="22.9" height="0.9"/>
		
			<rect id="e635c501-1628-42d4-a3a5-c4826c51f25c_1_" x="96" y="346.5" transform="matrix(0.4718 -0.8817 0.8817 0.4718 -264.5832 274.1117)" class="st4" width="0.9" height="22.9"/>
	</g>
	<ellipse id="eaa25ba1-fb02-4ae1-bc1b-a61530bf454c" class="st4" cx="54.5" cy="283.2" rx="43.7" ry="89.1"/>
	<path id="b4bf8935-d3ff-4e35-bb4f-d79f2288d23a-181" d="M58.5,429.1c-17.5-105-0.2-209.6,0-210.6l3.4,0.6
		c-0.2,1-17.4,105.1,0,209.5L58.5,429.1z"/>
	
		<rect id="b9f9a211-6e99-401f-90e8-cf0ebb439f20" x="51.6" y="274.4" transform="matrix(0.8818 -0.4717 0.4717 0.8818 -121.4996 67.5603)" width="44.8" height="3.5"/>
	
		<rect id="e0f316f7-4b6f-4546-8015-4a3c859d357e" x="30.6" y="264.3" transform="matrix(0.4719 -0.8816 0.8816 0.4719 -235.7314 179.9362)" width="3.5" height="44.8"/>
	<g>
		<ellipse id="f9fb50b4-1b5d-416e-9e0d-266f30cba72e" class="st4" cx="164.2" cy="220.1" rx="63.1" ry="128.7"/>
		<path id="a800d1c2-f743-4d93-bec2-cff0f953733c-182" d="M171.3,430.5c-25.2-151.3-0.3-302.1,0-303.6l2.5,0.4
			c-0.3,1.5-25.1,151.9,0,302.7L171.3,430.5z"/>
		
			<rect id="fb01bfd3-0095-4a66-b946-3896d80fc39c" x="160.1" y="208.7" transform="matrix(0.8818 -0.4717 0.4717 0.8818 -76.2667 115.5727)" width="64.7" height="2.5"/>
		
			<rect id="b67993a5-f0ea-4993-bd83-fcb2f25516f5" x="131" y="192.9" transform="matrix(0.4719 -0.8816 0.8816 0.4719 -128.7293 235.5279)" width="2.5" height="64.7"/>
	</g>
</g>
<g>
	<g>
		<ellipse id="fb6c0aeb-9c49-4f71-adc3-f096e0d8dfbf_2_" cx="818.7" cy="356.1" rx="22.3" ry="45.5"/>
		<path id="b1a6d698-dda0-490a-ac80-38ce87516ad9-189_2_" class="st4" d="M816.2,430.5c8.9-53.5,0.1-106.9,0-107.4l-0.9,0.2
			c0.1,0.5,8.9,53.7,0,107.1L816.2,430.5z"/>
		
			<rect id="ec111ffd-238a-4858-990a-57023cafb3d8_2_" x="808.2" y="341" transform="matrix(0.4718 -0.8817 0.8817 0.4718 116.3404 899.1754)" class="st4" width="0.9" height="22.9"/>
		
			<rect id="e635c501-1628-42d4-a3a5-c4826c51f25c_2_" x="818.5" y="357.4" transform="matrix(0.8817 -0.4718 0.4718 0.8817 -70.6702 433.9544)" class="st4" width="22.9" height="0.9"/>
	</g>
	<ellipse id="eaa25ba1-fb02-4ae1-bc1b-a61530bf454c_1_" class="st4" cx="872" cy="283.2" rx="43.7" ry="89.1"/>
	<path id="b4bf8935-d3ff-4e35-bb4f-d79f2288d23a-181_1_" d="M864.5,428.6c17.4-104.4,0.2-208.4,0-209.5l3.4-0.6
		c0.2,1,17.5,105.6,0,210.6L864.5,428.6z"/>
	
		<rect id="b9f9a211-6e99-401f-90e8-cf0ebb439f20_1_" x="850.7" y="253.8" transform="matrix(0.4717 -0.8818 0.8818 0.4717 206.8798 897.5831)" width="3.5" height="44.8"/>
	
		<rect id="e0f316f7-4b6f-4546-8015-4a3c859d357e_1_" x="871.7" y="285" transform="matrix(0.8816 -0.4719 0.4719 0.8816 -29.4934 455.8867)" width="44.8" height="3.5"/>
	<g>
		<ellipse id="f9fb50b4-1b5d-416e-9e0d-266f30cba72e_1_" class="st4" cx="762.2" cy="220.1" rx="63.1" ry="128.7"/>
		<path id="a800d1c2-f743-4d93-bec2-cff0f953733c-182_1_" d="M752.7,430.1c25.1-150.9,0.3-301.2,0-302.7l2.5-0.4
			c0.3,1.5,25.2,152.3,0,303.6L752.7,430.1z"/>
		
			<rect id="fb01bfd3-0095-4a66-b946-3896d80fc39c_1_" x="732.8" y="177.6" transform="matrix(0.4717 -0.8818 0.8818 0.4717 202.7249 758.1947)" width="2.5" height="64.7"/>
		
			<rect id="b67993a5-f0ea-4993-bd83-fcb2f25516f5_1_" x="761.9" y="223.9" transform="matrix(0.8816 -0.4719 0.4719 0.8816 -12.2841 401.4593)" width="64.7" height="2.5"/>
	</g>
</g>
<path id="a58bbeb0-9bd3-48cd-81c7-bf267a60ca0e-183" class="st4" d="M611.4,112.1l10.5-8.4c-8.2-0.9-11.5,3.6-12.9,7.1
	c-6.4-2.7-13.3,0.8-13.3,0.8l21,7.6C615.6,116.4,613.8,113.9,611.4,112.1L611.4,112.1z"/>
<path id="f9b938cf-521f-4b64-a4af-443f90f250ff-184" class="st4" d="M326.5,22.6l10.5-8.4c-8.2-0.9-11.5,3.6-12.9,7.1
	c-6.4-2.7-13.3,0.8-13.3,0.8l21,7.6C330.7,26.9,328.9,24.5,326.5,22.6z"/>
<path id="a8da215e-7841-4236-9b2d-2b5040889003-185" class="st4" d="M736.5,24.2l10.5-8.4c-8.2-0.9-11.5,3.6-12.9,7.1
	c-6.4-2.7-13.3,0.8-13.3,0.8l21,7.6C740.8,28.5,738.9,26,736.5,24.2L736.5,24.2z"/>
<path id="f0e6e0e6-42da-4f68-a4c7-39fa16634762-186" class="st4" d="M289.3,414.8c-2.8,0-5.5,0.7-8,2.1c-7-6.3-17.8-5.8-24.2,1.2
	c-2.8,3.2-4.4,7.2-4.4,11.5h52.5C304.7,421.3,297.7,414.8,289.3,414.8L289.3,414.8z"/>
<path id="a1a48b26-c08c-4af6-a63a-aec9264485a6-187" class="st4" d="M562.4,414.8c-2.8,0-5.5,0.7-8,2.1c-7-6.3-17.8-5.8-24.2,1.2
	c-2.8,3.2-4.4,7.2-4.4,11.5h52.5C577.8,421.3,570.8,414.8,562.4,414.8z"/>
<g id="b7f6eb98-a688-40b6-a6fe-b95f7faf89e9">
	<path id="a2b702d6-67ae-4451-8add-a2f537c8659d-188" class="st4" d="M437.2,383.5H305.3v4.3h20.6v40.4h4.3v-40.4h80.1v40.4h4.3
		v-40.4h22.7L437.2,383.5z"/>
	<rect id="e92a1475-8072-45d0-b33d-944691a78c33" x="305.5" y="370.8" class="st4" width="131.9" height="4.3"/>
	<rect id="b6a0a497-0aca-42fa-836e-077aa391619e" x="305.5" y="360.1" class="st4" width="131.9" height="4.3"/>
</g>
<g id="f3a52820-5da4-4b42-9266-f78e9fe7018d">
	<path id="a893f891-f54b-45a9-863c-d8f504ba27e5-215" class="st4" d="M718.9,383.5H587v4.3h20.6v40.4h4.3v-40.4h80.1v40.4h4.3v-40.4
		h22.7L718.9,383.5z"/>
	<rect id="acd566dc-6da0-4893-9936-737f20e2ae79" x="587.2" y="370.8" class="st4" width="131.9" height="4.3"/>
	<rect id="a718245b-7267-423b-9db7-7deabc7ded2f" x="587.2" y="360.1" class="st4" width="131.9" height="4.3"/>
</g>
</svg>
